<svg xmlns="http://www.w3.org/2000/svg" viewBox="0 0 1440 900" preserveAspectRatio="xMidYMid slice">
  <rect width="1440" height="900" fill="#f8e6c6"/>
  <path fill="#d6682a" d="M0 720 Q 60.00 780.00, 120.00 720.00 Q 180.00 660.00, 240.00 720.00 Q 300.00 780.00, 360.00 720.00 Q 420.00 660.00, 480.00 720.00 Q 540.00 780.00, 600.00 720.00 Q 660.00 660.00, 720.00 720.00 Q 780.00 780.00, 840.00 720.00 Q 900.00 660.00, 960.00 720.00 Q 1020.00 780.00, 1080.00 720.00 Q 1140.00 660.00, 1200.00 720.00 Q 1260.00 780.00, 1320.00 720.00 Q 1380.00 660.00, 1440.00 720.00 L 1440 900 Q 1380.00 850.00, 1320.00 900.00 Q 1260.00 950.00, 1200.00 900.00 Q 1140.00 850.00, 1080.00 900.00 Q 1020.00 950.00, 960.00 900.00 Q 900.00 850.00, 840.00 900.00 Q 780.00 950.00, 720.00 900.00 Q 660.00 850.00, 600.00 900.00 Q 540.00 950.00, 480.00 900.00 Q 420.00 850.00, 360.00 900.00 Q 300.00 950.00, 240.00 900.00 Q 180.00 850.00, 120.00 900.00 Q 60.00 950.00, 0.00 900.00 Z"/>
  <path fill="#f2a647" d="M0 640 Q 60.00 710.00, 120.00 640.00 Q 180.00 570.00, 240.00 640.00 Q 300.00 710.00, 360.00 640.00 Q 420.00 570.00, 480.00 640.00 Q 540.00 710.00, 600.00 640.00 Q 660.00 570.00, 720.00 640.00 Q 780.00 710.00, 840.00 640.00 Q 900.00 570.00, 960.00 640.00 Q 1020.00 710.00, 1080.00 640.00 Q 1140.00 570.00, 1200.00 640.00 Q 1260.00 710.00, 1320.00 640.00 Q 1380.00 570.00, 1440.00 640.00 L 1440 830 Q 1380.00 770.00, 1320.00 830.00 Q 1260.00 890.00, 1200.00 830.00 Q 1140.00 770.00, 1080.00 830.00 Q 1020.00 890.00, 960.00 830.00 Q 900.00 770.00, 840.00 830.00 Q 780.00 890.00, 720.00 830.00 Q 660.00 770.00, 600.00 830.00 Q 540.00 890.00, 480.00 830.00 Q 420.00 770.00, 360.00 830.00 Q 300.00 890.00, 240.00 830.00 Q 180.00 770.00, 120.00 830.00 Q 60.00 890.00, 0.00 830.00 Z"/>
  <path fill="#3c2d25" d="M0 560 Q 60.00 625.00, 120.00 560.00 Q 180.00 495.00, 240.00 560.00 Q 300.00 625.00, 360.00 560.00 Q 420.00 495.00, 480.00 560.00 Q 540.00 625.00, 600.00 560.00 Q 660.00 495.00, 720.00 560.00 Q 780.00 625.00, 840.00 560.00 Q 900.00 495.00, 960.00 560.00 Q 1020.00 625.00, 1080.00 560.00 Q 1140.00 495.00, 1200.00 560.00 Q 1260.00 625.00, 1320.00 560.00 Q 1380.00 495.00, 1440.00 560.00 L 1440 760 Q 1380.00 702.00, 1320.00 760.00 Q 1260.00 818.00, 1200.00 760.00 Q 1140.00 702.00, 1080.00 760.00 Q 1020.00 818.00, 960.00 760.00 Q 900.00 702.00, 840.00 760.00 Q 780.00 818.00, 720.00 760.00 Q 660.00 702.00, 600.00 760.00 Q 540.00 818.00, 480.00 760.00 Q 420.00 702.00, 360.00 760.00 Q 300.00 818.00, 240.00 760.00 Q 180.00 702.00, 120.00 760.00 Q 60.00 818.00, 0.00 760.00 Z"/>
  <path fill="#f28c3d" d="M0 480 Q 60.00 550.00, 120.00 480.00 Q 180.00 410.00, 240.00 480.00 Q 300.00 550.00, 360.00 480.00 Q 420.00 410.00, 480.00 480.00 Q 540.00 550.00, 600.00 480.00 Q 660.00 410.00, 720.00 480.00 Q 780.00 550.00, 840.00 480.00 Q 900.00 410.00, 960.00 480.00 Q 1020.00 550.00, 1080.00 480.00 Q 1140.00 410.00, 1200.00 480.00 Q 1260.00 550.00, 1320.00 480.00 Q 1380.00 410.00, 1440.00 480.00 L 1440 690 Q 1380.00 630.00, 1320.00 690.00 Q 1260.00 750.00, 1200.00 690.00 Q 1140.00 630.00, 1080.00 690.00 Q 1020.00 750.00, 960.00 690.00 Q 900.00 630.00, 840.00 690.00 Q 780.00 750.00, 720.00 690.00 Q 660.00 630.00, 600.00 690.00 Q 540.00 750.00, 480.00 690.00 Q 420.00 630.00, 360.00 690.00 Q 300.00 750.00, 240.00 690.00 Q 180.00 630.00, 120.00 690.00 Q 60.00 750.00, 0.00 690.00 Z"/>
  <path fill="#63bab6" d="M0 400 Q 60.00 475.00, 120.00 400.00 Q 180.00 325.00, 240.00 400.00 Q 300.00 475.00, 360.00 400.00 Q 420.00 325.00, 480.00 400.00 Q 540.00 475.00, 600.00 400.00 Q 660.00 325.00, 720.00 400.00 Q 780.00 475.00, 840.00 400.00 Q 900.00 325.00, 960.00 400.00 Q 1020.00 475.00, 1080.00 400.00 Q 1140.00 325.00, 1200.00 400.00 Q 1260.00 475.00, 1320.00 400.00 Q 1380.00 325.00, 1440.00 400.00 L 1440 610 Q 1380.00 545.00, 1320.00 610.00 Q 1260.00 675.00, 1200.00 610.00 Q 1140.00 545.00, 1080.00 610.00 Q 1020.00 675.00, 960.00 610.00 Q 900.00 545.00, 840.00 610.00 Q 780.00 675.00, 720.00 610.00 Q 660.00 545.00, 600.00 610.00 Q 540.00 675.00, 480.00 610.00 Q 420.00 545.00, 360.00 610.00 Q 300.00 675.00, 240.00 610.00 Q 180.00 545.00, 120.00 610.00 Q 60.00 675.00, 0.00 610.00 Z"/>
  <path fill="#f6c56d" d="M0 320 Q 60.00 390.00, 120.00 320.00 Q 180.00 250.00, 240.00 320.00 Q 300.00 390.00, 360.00 320.00 Q 420.00 250.00, 480.00 320.00 Q 540.00 390.00, 600.00 320.00 Q 660.00 250.00, 720.00 320.00 Q 780.00 390.00, 840.00 320.00 Q 900.00 250.00, 960.00 320.00 Q 1020.00 390.00, 1080.00 320.00 Q 1140.00 250.00, 1200.00 320.00 Q 1260.00 390.00, 1320.00 320.00 Q 1380.00 250.00, 1440.00 320.00 L 1440 530 Q 1380.00 472.00, 1320.00 530.00 Q 1260.00 588.00, 1200.00 530.00 Q 1140.00 472.00, 1080.00 530.00 Q 1020.00 588.00, 960.00 530.00 Q 900.00 472.00, 840.00 530.00 Q 780.00 588.00, 720.00 530.00 Q 660.00 472.00, 600.00 530.00 Q 540.00 588.00, 480.00 530.00 Q 420.00 472.00, 360.00 530.00 Q 300.00 588.00, 240.00 530.00 Q 180.00 472.00, 120.00 530.00 Q 60.00 588.00, 0.00 530.00 Z"/>
  <path fill="#f19d58" d="M0 240 Q 60.00 302.00, 120.00 240.00 Q 180.00 178.00, 240.00 240.00 Q 300.00 302.00, 360.00 240.00 Q 420.00 178.00, 480.00 240.00 Q 540.00 302.00, 600.00 240.00 Q 660.00 178.00, 720.00 240.00 Q 780.00 302.00, 840.00 240.00 Q 900.00 178.00, 960.00 240.00 Q 1020.00 302.00, 1080.00 240.00 Q 1140.00 178.00, 1200.00 240.00 Q 1260.00 302.00, 1320.00 240.00 Q 1380.00 178.00, 1440.00 240.00 L 1440 450 Q 1380.00 396.00, 1320.00 450.00 Q 1260.00 504.00, 1200.00 450.00 Q 1140.00 396.00, 1080.00 450.00 Q 1020.00 504.00, 960.00 450.00 Q 900.00 396.00, 840.00 450.00 Q 780.00 504.00, 720.00 450.00 Q 660.00 396.00, 600.00 450.00 Q 540.00 504.00, 480.00 450.00 Q 420.00 396.00, 360.00 450.00 Q 300.00 504.00, 240.00 450.00 Q 180.00 396.00, 120.00 450.00 Q 60.00 504.00, 0.00 450.00 Z"/>
  <path fill="#3f312b" d="M0 160 Q 60.00 216.00, 120.00 160.00 Q 180.00 104.00, 240.00 160.00 Q 300.00 216.00, 360.00 160.00 Q 420.00 104.00, 480.00 160.00 Q 540.00 216.00, 600.00 160.00 Q 660.00 104.00, 720.00 160.00 Q 780.00 216.00, 840.00 160.00 Q 900.00 104.00, 960.00 160.00 Q 1020.00 216.00, 1080.00 160.00 Q 1140.00 104.00, 1200.00 160.00 Q 1260.00 216.00, 1320.00 160.00 Q 1380.00 104.00, 1440.00 160.00 L 1440 380 Q 1380.00 332.00, 1320.00 380.00 Q 1260.00 428.00, 1200.00 380.00 Q 1140.00 332.00, 1080.00 380.00 Q 1020.00 428.00, 960.00 380.00 Q 900.00 332.00, 840.00 380.00 Q 780.00 428.00, 720.00 380.00 Q 660.00 332.00, 600.00 380.00 Q 540.00 428.00, 480.00 380.00 Q 420.00 332.00, 360.00 380.00 Q 300.00 428.00, 240.00 380.00 Q 180.00 332.00, 120.00 380.00 Q 60.00 428.00, 0.00 380.00 Z"/>
  <path fill="#f4d9a6" d="M0 60 Q 60.00 110.00, 120.00 60.00 Q 180.00 10.00, 240.00 60.00 Q 300.00 110.00, 360.00 60.00 Q 420.00 10.00, 480.00 60.00 Q 540.00 110.00, 600.00 60.00 Q 660.00 10.00, 720.00 60.00 Q 780.00 110.00, 840.00 60.00 Q 900.00 10.00, 960.00 60.00 Q 1020.00 110.00, 1080.00 60.00 Q 1140.00 10.00, 1200.00 60.00 Q 1260.00 110.00, 1320.00 60.00 Q 1380.00 10.00, 1440.00 60.00 L 1440 320 Q 1380.00 278.00, 1320.00 320.00 Q 1260.00 362.00, 1200.00 320.00 Q 1140.00 278.00, 1080.00 320.00 Q 1020.00 362.00, 960.00 320.00 Q 900.00 278.00, 840.00 320.00 Q 780.00 362.00, 720.00 320.00 Q 660.00 278.00, 600.00 320.00 Q 540.00 362.00, 480.00 320.00 Q 420.00 278.00, 360.00 320.00 Q 300.00 362.00, 240.00 320.00 Q 180.00 278.00, 120.00 320.00 Q 60.00 362.00, 0.00 320.00 Z"/>
</svg>
